<?xml version="1.0" encoding="utf-8"?>
<!-- Generator: Adobe Illustrator 24.0.1, SVG Export Plug-In . SVG Version: 6.00 Build 0)  -->
<svg version="1.1" id="Layer_1" xmlns="http://www.w3.org/2000/svg" xmlns:xlink="http://www.w3.org/1999/xlink" x="0px" y="0px"
	 viewBox="0 0 750 500" style="enable-background:new 0 0 750 500;" xml:space="preserve">
<style type="text/css">
	.st0{fill:none;stroke:#A9C6EA;stroke-miterlimit:10;}
	.st1{fill:none;stroke:#A9C6EA;stroke-miterlimit:10;stroke-dasharray:5,3.5;}
	.st2{fill:#E4ECF9;}
	.st3{fill:#D7E3F4;}
	.st4{fill:none;stroke:#FFFFFF;stroke-miterlimit:10;}
	.st5{fill:#B2CDED;}
	.st6{fill:none;stroke:#648ACC;stroke-miterlimit:10;}
	.st7{fill:#F886BC;}
	.st8{fill:#BF2C4C;}
	.st9{fill:#28364C;}
	.st10{fill:#101D54;}
	.st11{fill:none;stroke:#273B7A;stroke-width:0.75;stroke-miterlimit:10;}
	.st12{fill:#E03B5A;}
	.st13{fill-rule:evenodd;clip-rule:evenodd;fill:#E03B5A;}
	.st14{fill:none;stroke:#A31D4A;stroke-width:0.75;stroke-miterlimit:10;}
	.st15{fill-rule:evenodd;clip-rule:evenodd;fill:#F886BC;}
	.st16{fill:#0B0B3A;}
	.st17{fill:none;stroke:#0B0B3A;stroke-width:0.5;stroke-linecap:round;stroke-miterlimit:10;}
	.st18{fill:#FFFFFF;}
	.st19{fill:#D9E4F4;stroke:#648ACC;stroke-miterlimit:10;}
	.st20{fill:#FFFFFF;stroke:#648ACC;stroke-miterlimit:10;}
	.st21{opacity:0.45;fill:#D7E3F4;enable-background:new    ;}
	.st22{fill:#FDD305;}
	.st23{fill:#FFEE99;}
	.st24{opacity:0.55;}
	.st25{fill:#FFC043;}
	.st26{fill:#475577;}
	.st27{fill:none;stroke:#FFC043;stroke-width:3;stroke-linecap:round;stroke-linejoin:round;}
	.st28{fill:#648ACC;}
	.st29{fill:#F46072;}
	.st30{fill:#0C3656;}
	.st31{fill:#00276F;}
	.st32{fill:none;stroke:#00276F;stroke-width:0.75;stroke-linecap:round;stroke-linejoin:round;}
	.st33{fill:#212237;}
	.st34{fill:#4868EF;}
	.st35{fill:#22252D;}
	.st36{fill:none;stroke:#474B51;stroke-width:0.75;stroke-miterlimit:10;}
	.st37{fill:none;stroke:#28364C;stroke-width:0.75;stroke-miterlimit:10;}
	.st38{fill:#103BB2;}
	.st39{fill:#F2B18F;}
	.st40{fill:#0070E4;}
	.st41{fill:none;stroke:#0B2E6B;stroke-width:0.75;stroke-miterlimit:10;}
	.st42{fill:#D8CAC0;}
	.st43{fill:none;stroke:#846A6A;stroke-width:0.75;stroke-miterlimit:10;}
</style>
<title>3081623</title>
<g>
	<g id="OBJECTS">
		<path class="st0" d="M112.8,399.4c-0.8-0.2-1.6-0.4-2.4-0.6"/>
		<path class="st1" d="M107,397.8c-15-4.7-29.6-13.3-39.7-25.3c-35.5-42.2,6.1-96.2,47.5-113.2c20.2-8.3,38.4-18.2,44.3-41.2
			c5.7-22-9.9-45-13.9-66c-8.1-42.3,30-75,70.1-75c37,0,53.6,14.1,90.3,38.7c27.7,18.6,79.8,29.5,119.8,25.5
			c47.7-4.7,65.6-25.6,103.6-42.5c26.1-11.7,62.6-14.2,87,3.1c26.1,18.5,16.2,54.8,19.2,81.8c0.6,6.8,2.6,13.4,5.9,19.4
			c21.4,37.8,65.2,39.7,65.2,95.6c0,40.3-64.4,56.3-99.1,61.6"/>
		<path class="st0" d="M605.5,360.6c-0.8,0.1-1.7,0.2-2.5,0.4"/>
		<line class="st0" x1="102.8" y1="188.7" x2="117.1" y2="188.7"/>
		<line class="st0" x1="117.1" y1="196.6" x2="131.3" y2="196.6"/>
		<line class="st0" x1="538.1" y1="126.4" x2="552.3" y2="126.4"/>
		<line class="st0" x1="529" y1="134.3" x2="543.3" y2="134.3"/>
		<line class="st0" x1="550.7" y1="130.5" x2="570.1" y2="130.5"/>
		<line class="st0" x1="675.1" y1="295.5" x2="685.4" y2="295.5"/>
		<line class="st0" x1="665.8" y1="287.6" x2="680.1" y2="287.6"/>
		<line class="st0" x1="203.5" y1="87.9" x2="217.8" y2="87.9"/>
		<line class="st0" x1="180.3" y1="259.8" x2="203.8" y2="259.8"/>
		<line class="st0" x1="208.7" y1="259.8" x2="220.9" y2="259.8"/>
		<path class="st0" d="M482.7,229.9c0,2.5-2.1,4.6-4.6,4.6c-2.5,0-4.6-2.1-4.6-4.6c0-2.5,2.1-4.6,4.6-4.6
			C480.6,225.2,482.7,227.3,482.7,229.9C482.7,229.8,482.7,229.8,482.7,229.9z"/>
		<path class="st0" d="M663.6,198c0,2.5-2.1,4.6-4.6,4.6c-2.5,0-4.6-2.1-4.6-4.6c0-2.5,2.1-4.6,4.6-4.6c0,0,0,0,0,0
			C661.6,193.4,663.6,195.5,663.6,198z"/>
		<path class="st0" d="M492.7,98.8c0,2.5-2.1,4.6-4.6,4.6c-2.5,0-4.6-2.1-4.6-4.6s2.1-4.6,4.6-4.6l0,0
			C490.7,94.1,492.7,96.2,492.7,98.8C492.7,98.7,492.7,98.7,492.7,98.8z"/>
		<path class="st0" d="M582.7,105.6c0,1.3-1,2.3-2.3,2.3c-1.3,0-2.3-1-2.3-2.3c0-1.3,1-2.3,2.3-2.3c0,0,0,0,0,0
			C581.6,103.3,582.7,104.4,582.7,105.6z"/>
		<path class="st0" d="M442.7,277.7c0,1.3-1,2.3-2.3,2.3c-1.3,0-2.3-1-2.3-2.3c0-1.3,1-2.3,2.3-2.3c0,0,0,0,0,0
			C441.6,275.4,442.7,276.4,442.7,277.7C442.7,277.7,442.7,277.7,442.7,277.7z"/>
		<path class="st0" d="M176.5,113.4c0,1.3-1,2.3-2.3,2.3c-1.3,0-2.3-1-2.3-2.3s1-2.3,2.3-2.3l0,0
			C175.5,111.1,176.5,112.2,176.5,113.4C176.5,113.4,176.5,113.4,176.5,113.4z"/>
		<path class="st0" d="M73,256.5c0,1.3-1,2.3-2.3,2.3s-2.3-1-2.3-2.3c0-1.3,1-2.3,2.3-2.3c0,0,0,0,0,0C72,254.3,73,255.3,73,256.5
			C73,256.5,73,256.5,73,256.5z"/>
		<path class="st0" d="M185.8,209.6c0,1.3-1,2.3-2.3,2.3s-2.3-1-2.3-2.3c0-1.3,1-2.3,2.3-2.3h0C184.8,207.4,185.8,208.4,185.8,209.6
			z"/>
		<line class="st0" x1="115.2" y1="138.6" x2="115.2" y2="144"/>
		<line class="st0" x1="117.9" y1="141.3" x2="112.5" y2="141.3"/>
		<line class="st0" x1="432.3" y1="66.3" x2="432.3" y2="71.7"/>
		<line class="st0" x1="435" y1="69" x2="429.5" y2="69"/>
		<line class="st0" x1="602.8" y1="150.1" x2="602.8" y2="155.5"/>
		<line class="st0" x1="605.5" y1="152.8" x2="600.1" y2="152.8"/>
		<line class="st0" x1="691.5" y1="222.5" x2="691.5" y2="227.9"/>
		<line class="st0" x1="694.2" y1="225.2" x2="688.7" y2="225.2"/>
		<line class="st0" x1="665.8" y1="317.7" x2="665.8" y2="323.1"/>
		<line class="st0" x1="668.5" y1="320.4" x2="663.1" y2="320.4"/>
		<path class="st2" d="M510.7,257.6c3.6-6.2,5.6-13.2,5.9-20.4l-9.6-1.3c0.1-3.2-0.3-6.4-1.1-9.5l9.1-3.4
			c-1.9-6.9-5.4-13.3-10.2-18.6l-7.8,5.9c-2.2-2.3-4.7-4.3-7.5-6l4-8.9c-6.2-3.6-13.2-5.6-20.4-5.9l-1.3,9.6
			c-3.2-0.1-6.4,0.3-9.5,1.1l-3.3-9.1c-6.9,1.9-13.3,5.4-18.6,10.2l5.9,7.8c-2.3,2.2-4.3,4.7-6,7.5l-8.9-4
			c-3.6,6.2-5.6,13.2-5.9,20.4l9.6,1.3c-0.1,3.2,0.3,6.4,1,9.5l-9.1,3.4c1.9,6.9,5.4,13.3,10.2,18.6l7.8-5.9c2.2,2.3,4.7,4.3,7.5,6
			l-4,8.9c6.2,3.6,13.2,5.6,20.4,5.9l1.3-9.6c3.2,0.1,6.4-0.3,9.5-1.1l3.4,9.1c6.9-1.9,13.3-5.4,18.6-10.2l-5.9-7.8
			c2.3-2.2,4.3-4.7,6-7.5L510.7,257.6z M464.6,257.1c-12.2-3.6-19.2-16.3-15.6-28.5c3.6-12.2,16.3-19.2,28.5-15.6
			c12.2,3.6,19.2,16.3,15.6,28.5C489.6,253.7,476.9,260.7,464.6,257.1C464.6,257.2,464.6,257.1,464.6,257.1L464.6,257.1z
			 M466.3,251.3c-9-2.6-14.2-12-11.6-21.1c2.6-9,12-14.2,21.1-11.6c9,2.6,14.2,12,11.6,21.1c0,0,0,0,0,0
			C484.7,248.8,475.3,253.9,466.3,251.3L466.3,251.3z"/>
		<path class="st2" d="M520.4,163.7c-0.3-3.5-1.4-7-3.3-10l-4.3,2.3c-0.9-1.3-1.9-2.5-3.1-3.6l2.7-3.9c-2.7-2.3-5.9-3.9-9.4-4.7
			l-1.5,4.6c-1.6-0.3-3.1-0.4-4.7-0.3l-0.8-4.7c-3.5,0.3-6.9,1.4-10,3.3l2.2,4.3c-1.3,0.9-2.5,1.9-3.6,3.1l-3.9-2.8
			c-2.3,2.7-3.9,5.9-4.7,9.4l4.6,1.5c-0.3,1.6-0.4,3.1-0.3,4.7l-4.7,0.8c0.3,3.5,1.4,7,3.3,10l4.3-2.2c0.9,1.3,1.9,2.5,3.1,3.6
			l-2.8,3.9c2.7,2.3,5.9,3.9,9.4,4.7l1.5-4.6c1.6,0.3,3.1,0.4,4.7,0.3l0.8,4.7c3.5-0.3,6.9-1.4,10-3.3l-2.2-4.3
			c1.3-0.9,2.5-1.9,3.6-3.1l3.9,2.8c2.3-2.7,3.9-5.9,4.7-9.4l-4.6-1.5c0.3-1.6,0.4-3.1,0.3-4.7L520.4,163.7z M501,174.7
			c-5,1.7-10.4-1-12.1-6.1c-1.7-5,1-10.4,6.1-12.1c5-1.7,10.4,1,12.1,6.1c0,0,0,0,0,0C508.7,167.6,506,173.1,501,174.7
			C501,174.8,501,174.8,501,174.7L501,174.7z"/>
		<path class="st2" d="M284.2,131.3c-0.5-5.4-2.2-10.6-5.1-15.2l-6.6,3.3c-1.3-2-2.9-3.9-4.8-5.5l4.2-6c-4.2-3.5-9.1-5.9-14.4-7.2
			l-2.3,7c-2.4-0.5-4.8-0.7-7.2-0.5l-1.3-7.2c-5.4,0.4-10.6,2.2-15.2,5l3.3,6.6c-2,1.3-3.9,2.9-5.5,4.8l-6-4.2
			c-3.5,4.2-5.9,9.1-7.2,14.3l7,2.3c-0.5,2.4-0.7,4.8-0.5,7.2l-7.2,1.3c0.5,5.4,2.2,10.6,5.1,15.2l6.6-3.3c1.3,2,2.9,3.9,4.8,5.5
			l-4.2,6c4.1,3.5,9,6,14.3,7.2l2.3-7c2.4,0.5,4.8,0.7,7.2,0.5l1.3,7.2c5.4-0.5,10.6-2.2,15.2-5.1l-3.3-6.6c2-1.3,3.9-2.9,5.5-4.8
			l6,4.2c3.5-4.2,5.9-9.1,7.2-14.4l-7-2.3c0.5-2.4,0.7-4.8,0.5-7.2L284.2,131.3z M254.5,148.2c-7.7,2.6-16-1.6-18.5-9.3
			c-2.6-7.7,1.6-16,9.3-18.5c7.7-2.6,16,1.6,18.5,9.3C266.3,137.4,262.2,145.7,254.5,148.2z"/>
		<path class="st2" d="M218.5,186c1-1.8,1.8-3.6,2.4-5.6c0.6-2,0.9-4,1-6l-5.5-0.8c0-1.8-0.2-3.6-0.6-5.4l5.2-1.9
			c-1.1-3.9-3.1-7.5-5.8-10.5l-4.4,3.3c-1.3-1.3-2.7-2.5-4.2-3.4l2.3-5c-1.8-1-3.6-1.8-5.6-2.4c-2-0.6-4-0.9-6-1l-0.8,5.4
			c-1.8,0-3.6,0.2-5.4,0.6l-1.9-5.2c-3.9,1.1-7.5,3.1-10.6,5.8l3.3,4.4c-1.3,1.3-2.5,2.7-3.4,4.2l-5-2.3c-2,3.6-3.2,7.5-3.3,11.6
			l5.5,0.8c0,1.8,0.2,3.6,0.6,5.4l-5.2,1.9c1.1,3.9,3.1,7.5,5.8,10.6l4.4-3.3c1.3,1.3,2.7,2.5,4.2,3.4l-2.3,5
			c3.5,2,7.5,3.1,11.6,3.3l0.8-5.5c1.8,0,3.6-0.2,5.4-0.6l1.9,5.2c3.9-1.1,7.5-3.1,10.6-5.8l-3.3-4.4c1.3-1.3,2.5-2.7,3.4-4.2
			L218.5,186z M192.4,185.7c-6.9-2-10.8-9.3-8.8-16.1c2-6.9,9.3-10.8,16.1-8.8c6.9,2,10.8,9.2,8.8,16.1
			C206.6,183.8,199.4,187.7,192.4,185.7C192.4,185.8,192.4,185.7,192.4,185.7z M193.4,182.5c-5.1-1.5-8-6.8-6.6-11.9
			c1.5-5.1,6.8-8,11.9-6.6c5.1,1.5,8,6.8,6.6,11.9C203.8,181,198.5,183.9,193.4,182.5C193.4,182.5,193.3,182.5,193.4,182.5
			L193.4,182.5z"/>
		<path class="st3" d="M344.3,460.2c3-6.3,18.9-33.8,35.7-42.9c2.1-1.3,4.4-2.1,6.8-2.5c2.4-0.3,4.9,0.6,6.5,2.5
			c1.2,1.9,1.6,4.2,1.1,6.3c-3,17.2-22.6,23.8-32.2,36.5"/>
		<path class="st3" d="M344.3,460.1c0,0,15.8-31.1,31.1-49.6c7.3-8.8,12.3-25,4.6-29.9c-11.1-7-22,8.6-27,16.4
			c-7.5,11.8-13.1,24.8-17.4,38.1c-0.6,1.9-6.3,25-6.4,25L344.3,460.1L344.3,460.1z"/>
		<path class="st4" d="M374.4,389.5c-14.5,18.4-26.6,45.5-34.6,70.6"/>
		<path class="st5" d="M311.3,460.1c0,0-1.8-47.8-23-70c-5.7-6-15.1-12.2-22.8-13.9c-10-2.2-9.7,9.5-7.9,17.1
			c2.3,9.8,10.4,16,16.2,23.3c10.7,13.5,17,22.4,24.9,43.4"/>
		<path class="st3" d="M317.6,460.1c5.7-10.5,3.7-55.2,0.8-69.2c-2-9.7-6-18.9-11.7-27c-5.1-7-20.2-22.6-29.1-16.3
			c-5.1,3.6,2.6,16.8,4.7,20.7c6.7,13,12.1,26.6,16.1,40.6c5,16.4,8.2,33.4,9.7,50.5c0,0.2,0,0.4,0,0.6"/>
		<path class="st5" d="M318.7,460.1c-1.9-25-0.7-63.5,10.6-85.1c12.8-24.6,29.5-36,31.9-26.4c7,27.8-21.2,102.6-29.1,111.5"/>
		<path class="st4" d="M262.7,384.2c22.8,15.9,38.5,46,41.4,75.9"/>
		<path class="st4" d="M286,355.6c11.2,10,16.9,25.6,20.3,40.8c4.6,20.9,7.2,42.3,7.8,63.7"/>
		<path class="st4" d="M354,359.1c-13.8,31.7-25.4,65.9-27.3,101"/>
		<path class="st4" d="M386.5,420.9c0,0-20.1,13.4-34.2,39.2"/>
		<path class="st5" d="M592.5,460c3-39.5-0.3-78.3,14.7-115.8c4.3-10.6,14-27.4,27.5-28c20.8-0.9,8.1,40.9,4.3,56.6
			c-2.6,10.1-5.9,20-9.8,29.7c-6.7,17.1-16.7,40.9-24.3,57.5"/>
		<path class="st3" d="M581.8,460c-6.5-16.8-13-33.6-19.4-50.4c-5.8-14.9-12.4-29.5-17.1-44.8c-3.5-11.6-12.7-38.3,0.7-46.5
			c23.8-14.6,42.8,41.9,45.4,62c3.3,26.5,2.6,53.1,3,79.7"/>
		<path class="st5" d="M562.8,460c0,0-13.9-17.8-20.2-26.1c-14-18.6-31.3-38.9-28.7-59.8c0.6-4.8,2.4-10.2,7.2-13
			c3.1-1.6,6.6-2.3,10-1.9c11.4,1.1,21.6,17.6,26.7,26.1c10,16.6,25.6,74.7,25.6,74.7"/>
		<path class="st4" d="M552.2,330.1c17,34.4,33.6,98,34,129.9"/>
		<path class="st4" d="M525.8,369.5c15,28.7,45.3,90.5,45.3,90.5"/>
		<path class="st4" d="M633.9,325.3c-12.2,27.2-28.9,86.2-35.6,134.8"/>
		<path class="st3" d="M605.6,460c0,0,7-31,11.8-48.6c5.2-19.1,22.4-48.4,40.4-56.7c4.1-1.9,9.1-3.2,13.1-1c2.4,1.5,4.2,3.8,5,6.5
			c3.1,9-11.9,37.2-17.1,45.1c-10.1,15.5-24.5,40.2-36,54.8"/>
		<path class="st4" d="M667.5,361c-21.3,18.5-49.8,77.4-57.7,99.1"/>
		<path class="st5" d="M143.8,440.7c-2.7-14.5-7.2-43.1-10.6-60.7c-1.6-8.5-6.4-18.9-9.4-27c-5.5-14.7-18.8-40.3-35.3-39
			c-20.4,1.7-3.9,38.5,1.3,52.3c3.5,9,7.7,17.6,12.5,26c8.2,14.8,20.3,35.5,29.3,49.8"/>
		<path class="st5" d="M155.6,425.1c-5-13-3.6-29.6-3.6-43.5c0-24.9,8.7-59.8,24.9-76.1c6.7-6.7,17.7-14.2,24.9-3.9
			c6.8,9.7-1.1,36.2-3.5,47.6c-4.9,22.3-28.1,63.5-34.8,85.1"/>
		<path class="st4" d="M189.8,313c-11.5,29.8-27,84.3-30.9,116"/>
		<path class="st4" d="M90.2,322.4c14.6,23.4,35.9,73.7,47.3,117.4"/>
		<path class="st3" d="M144.3,409.1c6.1-10,13.4-42.6,15.1-54.3c2.3-16.4,2.6-33.7-1.5-49.8c-2.7-10.9-15.3-43.4-31-28.8
			c-7.4,6.9-6.2,44.5-5.3,54.5c1.7,19.7,11.9,55,15.4,74.4"/>
		<path class="st4" d="M135.7,284.7c10.8,28.1,8,97.9,4.7,122.3"/>
		<line class="st6" x1="48.5" y1="460.1" x2="676.3" y2="460.1"/>
		<path class="st7" d="M301.9,177.4c3.1-3,10.5-13.3,11.4-13s-1.7,3.9-1,4s5.1-5.2,5.8-4.8c1.1,0.6-3.7,5.9-3.7,5.9s5.5-5.4,6.2-4.6
			c0.5,0.6-3.5,4.9-4.8,6.8c1.7-1.8,4.8-4.5,5.3-3.9s-2.1,3.6-4,6.1c1.3-1.4,3.9-3.8,4.4-3.3s-5.9,10.3-11.8,17.4"/>
		<path class="st7" d="M262.8,214.8c15.5-13.2,30.1-27.5,43.6-42.7l9.8,6.6c0,0-16.5,25.5-38,47.5"/>
		<path class="st8" d="M255,222.3c5.4-6.8,14.3-13.3,14.3-13.3l15.8,12.8L271.3,238"/>
		<path class="st7" d="M282.3,338.2l-8.4,110.3l9.9,6.3c0,0-27.2,1.4-28.1,0.5s1.1-7,1.1-7L252.3,338L282.3,338.2z"/>
		<path class="st9" d="M260,455.2l-4-4l0.6-2.1l6.2,6.1h3l10.6-5.2l11.5,7.2c0.7,0.4,1,1.4,0.5,2.1c-0.3,0.5-0.8,0.7-1.3,0.7
			l-15.4-0.1l-4.9-3.4h-1.4v3.4h-10v-4.8L260,455.2z"/>
		<path class="st7" d="M260.3,337.6l-24.7,110.8l9.9,6.3c0,0-27.2,1.4-28.1,0.5s1.1-7,1.1-7l7.2-110.7L260.3,337.6z"/>
		<path class="st9" d="M221.7,455.2l-4.1-4l0.6-2.1l6.2,6.1h3L238,450l11.5,7.2c0.7,0.4,1,1.4,0.5,2.1c-0.3,0.5-0.8,0.7-1.3,0.7
			l-15.4-0.1l-4.9-3.4h-1.4v3.4h-10v-4.8L221.7,455.2z"/>
		<path class="st10" d="M234.3,280.5c-13.6,23.9-13.6,68.4-13.6,68.4h63c0,0-0.9-39.1-7.9-61.1L234.3,280.5z"/>
		<line class="st11" x1="255.4" y1="282.6" x2="256.9" y2="348.9"/>
		<path class="st11" d="M269.3,285.4c0,0-3.2,8.1-13.9,10.9"/>
		<path class="st7" d="M325,257.2c4.1,1.2,16.7,2.7,16.9,3.6s-4.2,0.4-4,1.1s7,1.9,7,2.8c-0.1,1.2-6.9-0.4-6.9-0.4s7.4,2.1,7.1,3.2
			c-0.3,0.8-6-0.6-8.3-0.9c2.4,0.6,6.2,2,5.9,2.8s-4.2-0.1-7.2-0.6c1.9,0.5,5.2,1.5,5,2.3s-9.9-0.7-19-2.3"/>
		<path class="st12" d="M250.9,215.9c0,0,1,2.7,6.7,2.7c4,0,5.4-2.1,5.4-2.1s1.5,1.3,17,21.7c3.3,4.3,2.6,13.6-2.9,21.7
			c-1.4,9.2-1.8,18.6-1.3,27.9h-45c0,0-0.8-32.4,2.3-50C235,228,241.7,219.7,250.9,215.9z"/>
		<path class="st7" d="M280.6,229.9c30,23.5,50.8,28.6,50.8,28.6L329,270c0,0-36-4.6-59.7-24.5"/>
		<path class="st13" d="M263.2,217.2c7.7,1.3,19.5,12.6,19.5,12.6l-12.5,18.4c0,0-5.3-3.7-12.5-9.9"/>
		<path class="st14" d="M270.2,247.6c-9.4-5.7-13.6-9.9-13.6-9.9"/>
		<path class="st15" d="M266.6,195.9c3.1,5.2,4.4,10.4,0,13s-11.4,4-15.9-3.4c-3.1-5.2-2.1-11.5,2.3-14.2S263.4,190.8,266.6,195.9z"
			/>
		<path class="st16" d="M262.9,197.3c0.1,0.5,0.6,1.1,1.1,1.1c0.1,0,0.3-0.1,0.3-0.2C264.6,197.3,262.6,196.1,262.9,197.3z"/>
		<path class="st17" d="M260.9,196.8c0.7-1,1.8-1.6,3-1.7"/>
		<path class="st18" d="M267.8,201.8l-2.9,1.4c0,0,1,2.5,2.6,2C268.8,204.9,267.8,201.8,267.8,201.8z"/>
		<path class="st15" d="M263.2,217.2c-1.7,0.9-3.7,1.3-5.6,1.3c-4.5-0.1-6.7-1.9-6.7-1.9l3-12.8l11,0.8L263.2,217.2z"/>
		<path class="st15" d="M265.5,196.2c0,0,3.8,2.5,3.9,3.2S268,201,268,201"/>
		<path class="st16" d="M255,187.8c-0.4,0.2-1.8-0.2-2.3-0.2c-0.7,0-1.4,0.1-2.1,0.2c-4.2,0.8-7.3,4.2-9.3,7.8
			c-1.3,2.3-2.4,4.9-4.7,6.4c-5.2,3.3-12,2.1-17.8,4s-10.4,8-8.8,14.4c0.5,2.1,1.6,4,2.3,6c1.4,4.4,0.7,9.5,3.4,13.3
			c0.7,1,1.6,1.9,2.6,2.6c7.9,6,19.2,4.5,25.2-3.4c1-1.3,1.8-2.8,2.4-4.3c2.3-5.8,1.6-12.8,5-18.1c1.6-2.5,4-4.4,5.6-6.8
			c1.5-2.3,2.2-6.5,2.4-9.2c0-0.6-1.1-5.9-0.8-5.9c2.9-0.2,5.6-1.3,7.8-3.3c-1.9-3.9-6.7-5.6-10.6-3.6
			C255.1,187.7,255.1,187.8,255,187.8z"/>
		<path class="st7" d="M258,201.2c-0.8-0.6-2-0.4-2.6,0.4c0,0,0,0-0.1,0.1c-1.3,2,1.9,4.5,3.4,4.6s1.5-1.6,1.5-1.6"/>
		<rect x="497.2" y="169.5" class="st19" width="97.9" height="130.7"/>
		<rect x="511.8" y="169.5" class="st20" width="97.9" height="130.7"/>
		<path class="st21" d="M528.8,179.7h64.7c2,0,3.6,1.6,3.6,3.6c0,0,0,0,0,0v9.9c0,2-1.6,3.6-3.6,3.6l0,0h-64.7c-2,0-3.6-1.6-3.6-3.6
			v-9.9C525.2,181.3,526.8,179.7,528.8,179.7z"/>
		<path class="st21" d="M528.8,241.4H563c2,0,3.6,1.6,3.6,3.6c0,0,0,0,0,0v40.9c0,2-1.6,3.6-3.6,3.6h-34.2c-2,0-3.6-1.6-3.6-3.6V245
			C525.2,243,526.8,241.4,528.8,241.4z"/>
		<path class="st5" d="M530.6,213.8h-2.2c-1.8,0-3.2-1.9-3.2-4.2s1.4-4.2,3.2-4.2h2.2V213.8z"/>
		<path class="st3" d="M533.8,209.6c0,2.3-1.4,4.2-3.2,4.2s-3.2-1.9-3.2-4.2s1.4-4.2,3.2-4.2S533.8,207.3,533.8,209.6z"/>
		<path class="st5" d="M551.7,213.8h-2.2c-1.8,0-3.2-1.9-3.2-4.2s1.4-4.2,3.2-4.2h2.2V213.8z"/>
		<path class="st3" d="M554.9,209.6c0,2.3-1.4,4.2-3.2,4.2s-3.2-1.9-3.2-4.2s1.4-4.2,3.2-4.2S554.9,207.3,554.9,209.6z"/>
		<path class="st5" d="M572.8,213.8h-2.2c-1.8,0-3.2-1.9-3.2-4.2s1.4-4.2,3.2-4.2h2.2V213.8z"/>
		<path class="st3" d="M576,209.6c0,2.3-1.4,4.2-3.2,4.2s-3.2-1.9-3.2-4.2s1.4-4.2,3.2-4.2S576,207.3,576,209.6z"/>
		<path class="st5" d="M593.9,213.8h-2.2c-1.8,0-3.2-1.9-3.2-4.2s1.4-4.2,3.2-4.2h2.2V213.8z"/>
		<path class="st3" d="M597.1,209.6c0,2.3-1.4,4.2-3.2,4.2s-3.2-1.9-3.2-4.2s1.4-4.2,3.2-4.2S597.1,207.3,597.1,209.6z"/>
		<path class="st5" d="M530.6,234h-2.2c-1.8,0-3.2-1.9-3.2-4.2s1.4-4.2,3.2-4.2h2.2V234z"/>
		<path class="st3" d="M533.8,229.9c0,2.3-1.4,4.2-3.2,4.2s-3.2-1.9-3.2-4.2s1.4-4.2,3.2-4.2S533.8,227.5,533.8,229.9z"/>
		<path class="st5" d="M551.7,234h-2.2c-1.8,0-3.2-1.9-3.2-4.2s1.4-4.2,3.2-4.2h2.2V234z"/>
		<path class="st3" d="M554.9,229.9c0,2.3-1.4,4.2-3.2,4.2s-3.2-1.9-3.2-4.2s1.4-4.2,3.2-4.2S554.9,227.5,554.9,229.9z"/>
		<path class="st5" d="M572.8,234h-2.2c-1.8,0-3.2-1.9-3.2-4.2s1.4-4.2,3.2-4.2h2.2V234z"/>
		<path class="st3" d="M576,229.9c0,2.3-1.4,4.2-3.2,4.2s-3.2-1.9-3.2-4.2s1.4-4.2,3.2-4.2S576,227.5,576,229.9z"/>
		<path class="st5" d="M593.9,234h-2.2c-1.8,0-3.2-1.9-3.2-4.2s1.4-4.2,3.2-4.2h2.2V234z"/>
		<path class="st3" d="M597.1,229.9c0,2.3-1.4,4.2-3.2,4.2s-3.2-1.9-3.2-4.2s1.4-4.2,3.2-4.2S597.1,227.5,597.1,229.9z"/>
		<polygon class="st20" points="125.4,460.1 291.5,460.1 291.5,332.8 167.2,332.8 125.4,381.7 		"/>
		<polygon class="st19" points="244.4,460.1 305.6,460.1 305.6,332.8 285.3,332.8 244.4,381.7 		"/>
		<rect x="125.4" y="381.7" class="st19" width="119" height="78.4"/>
		<path class="st5" d="M255,347c1.1,1,3.5,0.4,5.2-1.6s2.2-4.3,1.1-5.4l-2.3-2.1l-6.3,6.9L255,347z"/>
		<path class="st3" d="M252.8,345c1.1,1,3.5,0.3,5.2-1.6s2.2-4.3,1.1-5.3s-3.5-0.3-5.2,1.6S251.7,344,252.8,345z"/>
		<path class="st5" d="M236.5,347c1.1,1,3.5,0.4,5.2-1.6s2.2-4.3,1.1-5.4l-2.4-2.1l-6.3,6.9L236.5,347z"/>
		<path class="st3" d="M234.3,345c1.1,1,3.5,0.3,5.2-1.6s2.2-4.3,1.1-5.3s-3.5-0.3-5.2,1.6S233.1,344,234.3,345z"/>
		<path class="st5" d="M198.4,347c1.1,1,3.5,0.4,5.2-1.6s2.2-4.3,1.1-5.4c-0.8-0.7-2.4-2.2-2.4-2.2l-6.3,6.9L198.4,347z"/>
		<path class="st3" d="M196.2,345c1.1,1,3.5,0.3,5.2-1.6s2.2-4.3,1.1-5.3s-3.5-0.3-5.2,1.6S195,344,196.2,345z"/>
		<path class="st5" d="M178.7,347c1.1,1,3.5,0.4,5.2-1.6s2.2-4.3,1.1-5.4c-0.8-0.7-2.4-2.2-2.4-2.2l-6.3,6.9L178.7,347z"/>
		<path class="st3" d="M176.5,345c1.1,1,3.5,0.3,5.2-1.6s2.2-4.3,1.1-5.3s-3.5-0.3-5.2,1.6S175.4,344,176.5,345z"/>
		<polygon class="st21" points="243,372.8 249.6,364.2 149,364.2 141.5,372.8 		"/>
		<path class="st6" d="M354.1,313.3v106.3c0,5.1-4.2,9.3-9.3,9.3l0,0h-59.1c-5.1,0-9.3-4.2-9.3-9.3c0,0,0,0,0,0v-3"/>
		<path class="st6" d="M368.8,318.2v121.5c0,5.2-4.3,9.5-9.5,9.5h-94c-5.1,0-9.3-4.2-9.3-9.3v-23.3"/>
		<path class="st6" d="M395.4,316.1v70.5c0,5.1,4.2,9.3,9.3,9.3c0,0,0,0,0,0h73.5c5.1,0,9.3-4.2,9.3-9.3c0,0,0,0,0,0V265.9
			c0-5.1,4.2-9.3,9.3-9.3c0,0,0,0,0,0h30.3"/>
		<path class="st6" d="M383.6,318.2v98.8c0,5.1,4.2,9.3,9.3,9.3h134.9c5.1,0,9.3-4.2,9.3-9.3c0,0,0,0,0,0V279.6"/>
		<path class="st22" d="M287.4,163.6c0-48.4,39.2-87.6,87.6-87.6c48.4,0,87.6,39.2,87.6,87.6c0,18.6-5.9,36.6-16.8,51.6l0,0
			c-12.5,18.9-45,40.1-45,52.9v14.6c0,2.9-2.4,5.3-5.3,5.3h-41.1c-2.9,0-5.3-2.4-5.3-5.3v-14.6c0-12.8-32.5-34-45-52.9l0,0
			C293.2,200.2,287.3,182.1,287.4,163.6z"/>
		<path class="st18" d="M385,286.4c-0.1-2.2-1.7-37.4,1.1-68.2c-7.4,0.8-14.8,0.8-22.2,0c2.8,30.8,1.3,66,1.1,68.2l-1.5-0.1
			c0-0.5,1.6-36.9-1.2-68.3c-26-3.6-37.6-18.3-39.7-32.2c-1.2-8.1,1.6-16.2,6.6-19.2c3.3-1.8,7.1-2.2,10.7-1.1
			c6.2,1.8,12.1,7.1,15.7,14.3c4.2,8.3,6.7,22,8.2,36.9c7.5,0.9,15,0.9,22.5,0c1.5-14.9,4-28.6,8.2-36.9c3.7-7.2,9.5-12.5,15.7-14.3
			c3.6-1.2,7.4-0.8,10.7,1.1c5,3,7.8,11.1,6.6,19.2c-2.1,13.9-13.7,28.6-39.7,32.2c-2.9,31.4-1.3,67.8-1.2,68.3L385,286.4z
			 M414.5,166.4c-1.3,0-2.6,0.2-3.9,0.6c-5.8,1.7-11.3,6.7-14.8,13.5c-4.1,7.9-6.5,21.3-7.9,36c24.9-3.6,36-17.6,38-30.9
			c1.1-7.4-1.4-15-5.9-17.7C418.4,166.9,416.5,166.4,414.5,166.4L414.5,166.4z M335.5,166.4c-1.9,0-3.9,0.5-5.5,1.5
			c-4.5,2.7-7,10.3-5.9,17.7c2,13.3,13.1,27.3,38,30.9c-1.4-14.6-3.9-28-7.9-36c-3.5-6.8-9-11.8-14.8-13.5
			C338.2,166.6,336.8,166.4,335.5,166.4L335.5,166.4z"/>
		<path class="st23" d="M448,168.6c-2.8,0-5-2.2-5-5c0-31.1-21.1-58.3-51.3-65.9c-2.7-0.7-4.3-3.4-3.6-6.1c0.7-2.7,3.4-4.3,6.1-3.6
			c34.6,8.8,58.9,40,58.9,75.7C453.1,166.4,450.8,168.6,448,168.6C448,168.6,448,168.6,448,168.6z"/>
		<path class="st23" d="M373.3,90.4c0,2.8,2.2,5,5,5s5-2.2,5-5s-2.2-5-5-5S373.3,87.6,373.3,90.4z"/>
		<g class="st24">
			<path class="st25" d="M462.5,168.8c-4.8,35.9-33.9,73.1-87.5,73.1s-81.5-38.9-87.5-73.1c1,16.7,6.7,32.9,16.6,46.4l0,0
				c12.5,18.9,45,40.1,45,52.9v14.6c0,2.9,2.4,5.3,5.3,5.3h41.1c2.9,0,5.3-2.4,5.3-5.3v-14.6c0-12.8,32.5-34,45-52.9l0,0
				C455.7,201.6,461.5,185.5,462.5,168.8z"/>
		</g>
		<path class="st9" d="M402.9,274.3h-55.8v26.6c0,4.3,1.2,8.6,3.6,12.3l0,0c4.4,6.9,12,11.1,20.2,11.1h8.2c8.2,0,15.8-4.2,20.2-11.1
			l0,0c2.3-3.7,3.6-7.9,3.6-12.3L402.9,274.3z"/>
		<path class="st26" d="M347.1,292.2c0.2,0,0.3,0,0.5,0l55.8-5.8c1.8-0.2,3.2-1.8,3-3.6c0-0.1,0-0.1,0-0.2c-0.3-1.9-2-3.3-3.9-3.1
			l-55.8,5.8c-1.8,0.2-3.2,1.8-3,3.6c0,0.1,0,0.1,0,0.2C343.9,290.8,345.4,292.1,347.1,292.2z"/>
		<path class="st26" d="M347.1,304.4c0.2,0,0.3,0,0.5,0l55.8-5.8c1.8-0.2,3.2-1.8,3-3.6c0-0.1,0-0.1,0-0.2c-0.3-1.9-2-3.3-3.9-3.1
			l-55.8,5.8c-1.8,0.2-3.2,1.8-3,3.6c0,0.1,0,0.1,0,0.2C343.9,303,345.4,304.3,347.1,304.4z"/>
		<path class="st26" d="M349.3,316.4c0.2,0,0.3,0,0.5,0l52.9-5.5c1.8-0.2,3.2-1.8,3-3.6c0-0.1,0-0.1,0-0.2c-0.3-1.9-2-3.3-3.9-3.1
			l-52.9,5.5c-1.8,0.2-3.2,1.8-3,3.6c0,0.1,0,0.1,0,0.2C346.1,315,347.6,316.3,349.3,316.4z"/>
		<line class="st27" x1="375" y1="38.8" x2="375" y2="66.3"/>
		<line class="st27" x1="424.7" y1="49.7" x2="413.5" y2="74.9"/>
		<line class="st27" x1="466.5" y1="80.2" x2="446.2" y2="98.8"/>
		<line class="st27" x1="325.3" y1="49.7" x2="336.5" y2="74.9"/>
		<line class="st27" x1="283.5" y1="80.2" x2="303.8" y2="98.8"/>
		
			<ellipse transform="matrix(0.1602 -0.9871 0.9871 0.1602 -196.3778 602.6057)" class="st28" cx="255.9" cy="416.7" rx="1.9" ry="1.9"/>
		<circle class="st28" cx="276.4" cy="416.7" r="1.9"/>
		<circle class="st28" cx="537.1" cy="279.6" r="1.9"/>
		<circle class="st28" cx="547.8" cy="279.6" r="1.9"/>
		<path class="st28" d="M560.4,279.6c0,1-0.9,1.9-1.9,1.9c-1,0-1.9-0.9-1.9-1.9c0-1,0.9-1.9,1.9-1.9S560.4,278.6,560.4,279.6
			C560.4,279.6,560.4,279.6,560.4,279.6z"/>
		<circle class="st28" cx="527.1" cy="256.5" r="1.9"/>
		<circle class="st29" cx="468.7" cy="367.6" r="39.1"/>
		<circle class="st18" cx="468.7" cy="367.6" r="28.3"/>
		<path class="st29" d="M449.2,367.6c0,10.7,8.7,19.5,19.4,19.5s19.5-8.7,19.5-19.4s-8.7-19.5-19.4-19.5c0,0,0,0,0,0
			C457.9,348.2,449.2,356.9,449.2,367.6z"/>
		<path class="st18" d="M458.5,367.6c0,5.6,4.6,10.2,10.2,10.2s10.2-4.6,10.2-10.2c0-5.6-4.6-10.2-10.2-10.2c0,0,0,0,0,0
			C463.1,357.4,458.5,362,458.5,367.6z"/>
		<polygon class="st30" points="467.1,369.2 473.5,369.2 467.1,362.8 		"/>
		<polygon class="st30" points="508.6,327.7 515.9,327.7 515.9,325.9 510.4,325.9 510.4,320.4 508.6,320.4 		"/>
		<polygon class="st30" points="511.9,324.4 519.3,324.4 519.3,322.5 513.8,322.5 513.8,317 511.9,317 		"/>
		
			<rect x="459.7" y="344.3" transform="matrix(0.7071 -0.7071 0.7071 0.7071 -100.306 448.33)" class="st30" width="62.6" height="1.9"/>
		<path class="st7" d="M167.7,297.8l-4.8,9.2c-2.8-0.2-5.4-0.9-7.9-2.2c-4.5-2.2-5.8-5.3-5.8-5.3l8.2-10.8"/>
		<path class="st7" d="M178,280.5c4.5,2.6-2.9,19.4-7,20.5s-12.1-6.9-14.5-13.6s5.3-10.4,9.9-11.7S178,280.5,178,280.5z"/>
		<path class="st31" d="M174.6,288.6c-0.1,0.3-0.3,0.5-0.4,0.8s0.4,0.6,0.5,0.3s0.3-0.6,0.4-0.9S174.8,288.3,174.6,288.6
			L174.6,288.6z"/>
		<path class="st32" d="M177.1,287c0,0-1-1.5-3.6-1"/>
		<path class="st18" d="M170.7,295.1l2.9,2c0,0-1.1,2.2-2.1,1.3S170.7,295.1,170.7,295.1z"/>
		<path class="st33" d="M182,284.1c-2-0.7-4-1.6-5.8-2.7c-2.1,0.4-4.2,2.4-4.3,4.5c0,0.5-0.1,1.2-0.6,1.2c-0.3,0-0.6-0.3-0.7-0.6
			c0-0.3-0.1-0.7-0.2-1c-0.3-0.6-1.1-0.9-1.8-0.7c-0.7,0.3-1.2,0.8-1.4,1.5c-0.7,1.6-1.3,3.6,0.3,5c0.3,0.2,0.5,0.4,0.7,0.7
			c0.3,0.6-0.1,1.4-0.5,1.9c-1.4,2.4-4,3.8-6.7,3.8c-2.6,0-6.8-3.4-7.1-5.1c0-0.1-2.5-10.5,2.1-17.1c2.4-3.5,6.7-6.1,11.2-5.7
			c2.4,0.3,4.7,1.4,6.5,2.9C181.3,274.2,182.9,281.9,182,284.1z"/>
		<path class="st7" d="M177.7,290.3c0,0,0.7,5-0.3,5.6s-3.1-0.9-3.1-0.9"/>
		<path class="st7" d="M179.7,426.2l-3.7,23.6l-0.2,7.1l27.9-0.1c0.7,0,1.2-0.6,1.2-1.2l0,0c0-0.5-0.3-1-0.8-1.1l-12-5.5l4.8-24.6"
			/>
		<path class="st34" d="M206.3,456.5c-0.2-0.8-0.7-1.6-1.3-2.1l-12.8-5.5c-7,2.9-16.1,0.7-16.1,0.7l-1.6,9.6c0,0.3,0.3,0.6,0.6,0.6
			c0,0,0,0,0,0l31.1-0.2C206.7,459.6,206.3,456.6,206.3,456.5z"/>
		<path class="st11" d="M194.9,449.5c-0.7,0.9-1.3,1.9-1.8,3"/>
		<path class="st11" d="M196.5,450.4c-0.6,0.8-1.1,1.7-1.5,2.6"/>
		<path class="st11" d="M197.9,451.1c-0.5,0.8-1,1.5-1.4,2.4"/>
		<line class="st11" x1="174.5" y1="457.7" x2="206.4" y2="457.5"/>
		<path class="st11" d="M175.4,453c0,0,7.5,0.1,8.1,4.7"/>
		<path class="st11" d="M202.3,453.3c-1,1.3-1.8,2.8-2.5,4.3"/>
		<path class="st7" d="M93.1,432.4l-23.3-2.8l-7.1-0.2l0.1,27.9c0,0.7,0.5,1.2,1.2,1.2c0,0,0,0,0,0l0,0c0.5,0,1-0.3,1.2-0.8l5.5-12
			l24.1,2.7"/>
		<path class="st34" d="M63.1,459.8c0.8-0.2,1.6-0.7,2.1-1.3l5.5-12.8c-2.8-7-0.7-16.1-0.7-16.1l-9.6-1.6c-0.3,0-0.6,0.3-0.6,0.6
			l0.2,31.1C60,460.2,63.1,459.8,63.1,459.8z"/>
		<path class="st11" d="M70.2,448.5c-0.9-0.7-1.9-1.3-3-1.8"/>
		<path class="st11" d="M69.2,450.1c-0.8-0.6-1.7-1.1-2.6-1.5"/>
		<path class="st11" d="M68.5,451.4c-0.8-0.5-1.5-1-2.4-1.4"/>
		<line class="st11" x1="62" y1="428.1" x2="62.1" y2="460"/>
		<path class="st11" d="M66.7,429c0,0-0.2,7.5-4.7,8.1"/>
		<path class="st11" d="M66.4,455.9c-1.3-1-2.8-1.8-4.3-2.5"/>
		<path class="st35" d="M106.9,367.5c-5,13.4,3.2,32.8,3.2,32.8l4.3,31.3l-40.8-1.8L74,457c0,0,43.8,3.1,54.4,3.1s14.7-2.4,17.8-8.6
			c4.6-9.3-2-60.4-2-61.2l-7.3-32.8"/>
		<line class="st36" x1="78.5" y1="430" x2="78.8" y2="457.3"/>
		<path class="st35" d="M121.1,374.8c0,0-4.6,23.7,18.9,28.8c10.5,2.3,37.3,3,37.3,3l-4.6,36.6h26.7c0,0,5.5-27.6,7.2-46
			c1.1-12.3-4.2-17.8-14.1-19c-8.4-1-33.7-2.7-33.7-2.7l-4.3-5.3"/>
		<path class="st36" d="M145.3,404.4c0,0-19.8,0.1-24.6-22.1"/>
		<path class="st36" d="M131.2,380.2c4.1,0.7,8.2,0.8,12.3,0.6"/>
		<path class="st36" d="M105.3,377c2.8,0.8,5.7,1.3,8.7,1.5"/>
		<line class="st36" x1="174.5" y1="438.4" x2="200.4" y2="438.4"/>
		<rect x="227.8" y="337.4" class="st28" width="2.1" height="23.2"/>
		<circle class="st28" cx="228.9" cy="335" r="3.9"/>
		<path class="st7" d="M209.2,341.7l7.9,0.6c0,0,6.1-2,8.5-2.1c0.8-0.1,1.6,0.2,2.2,0.8v2.4c0,1.6,2.1,2.3,2.1,1.2v-1.3
			c0,0.1,4.4,2.1,1.8,4.1c1.2,0.3,1.8,1.9-0.4,3.1c0.8,0.4,1.1,1.5,0.6,2.3c-0.2,0.3-0.4,0.5-0.7,0.7c0.7,1.1-0.8,2.4-1.9,2.6
			C227,356.4,209,356,209,356"/>
		<path class="st34" d="M163.2,306.1c12.9,17.9,6,23.7-3.3,69.4c-18.4,0-36.8-1.8-54.9-5.4c5.7-17.4,12.8-34.4,21.1-50.7
			c6.5-12.7,17.4-19.1,23.6-20.7"/>
		<path class="st34" d="M143.5,326.2c0,0,20,31.3,29.5,32.7c15.1,2.2,40.1,1.6,40.1,1.6l1.5-22c0,0-32.1-1.6-33.4-2.4
			c-4.3-2.4-18-30-18-30"/>
		<path class="st11" d="M164.8,353.2c-8-7-14.6-15.5-19.6-24.9"/>
		<line class="st11" x1="210" y1="338.3" x2="208.1" y2="360.6"/>
		<path class="st7" d="M634.7,303.6c-0.5,4.3-3.9,16.5-3.2,17s2-3.8,2.5-3.2s-1,7.2-0.1,7.5c1.2,0.4,2.3-6.5,2.3-6.5
			s-0.9,7.7,0.2,7.8c0.8,0.1,1.8-5.8,2.4-7.9c-0.4,2.5-0.6,6.5,0.3,6.5s1.5-3.9,2.3-6.9c-0.3,1.9-0.6,5.4,0.2,5.5s3.2-9.4,5.2-18.4"
			/>
		<path class="st7" d="M648.6,244.9c0,0,6.9,12.3,7.9,19.9c2.5,18.6-13,50.1-13,50.1s-11.2-3.1-11.2-4.5s7.8-34.5,7.8-34.5L629,250"
			/>
		<path class="st7" d="M614.9,204.5l1.5,13.9c0,0-8.3,7.1-15.7-0.8l0.9-9.1L614.9,204.5z"/>
		<path class="st7" d="M603.3,190.6c0,0-9,12.4-5.3,17.1c2.7,3.4,9.8,3.8,12,2.5c0.5-2.5,6.3-10.9,5.4-12.8
			C611.8,190.1,603.3,190.6,603.3,190.6z"/>
		<path class="st33" d="M617.3,192.7c-0.3-4.7-4.9-6.1-13.8-5.5c-1.2,0.1-3.3-0.7-3.8,0.3c-0.7,1.4-0.8,4.2,0.5,5.5
			c0.8,0.7,1.7,1.2,2.8,1.3c1.6,0.4,3.3,1.9,2.4,3.6c-0.2,0.4-0.8,1.2-0.4,1.6c0.3,0.2,0.6,0.4,1,0.5c0.6,0.4,0.6,1.3,0.2,1.9
			s-0.2,1.3-0.6,1.9c-1,1.4,0.2,4.1,1.7,4.9c1.3,0.8,5.6,2.1,8.7,0.4c2.7-1.4,4.3-5.3,4.4-12.1C620.3,194.3,618.3,192.5,617.3,192.7
			z"/>
		<path class="st7" d="M604.3,199.8c1.5-1.9,2.7-1.6,3.3-0.5c0.9,1.4-0.9,4.2-1.7,4.7c-1.6,1-3,0.9-3.1-0.4"/>
		<path class="st9" d="M600.7,197c-0.4,0.4-0.8,1-0.6,1.4c0.1,0.1,0.2,0.2,0.3,0.2C601.4,198.5,601.6,196.2,600.7,197z"/>
		<path class="st37" d="M600.8,195.2c0.8,0.2,1.5,0.8,1.9,1.5"/>
		<path class="st18" d="M600.8,203.6l-2-1.1c0,0-1.3,2.5-0.4,3.1S600.8,203.6,600.8,203.6z"/>
		<rect x="569.8" y="458.6" class="st38" width="32.5" height="1.5"/>
		<path class="st35" d="M597.6,446.6l2.8,0.7c0,0,1.1,3.7,1.5,6.2c0.3,1.7,0.4,3.4,0.3,5.1h-32.5c0,0,0.8-2.8,8.6-7.4
			c1.8-1,3.3-2.3,4.6-3.8L597.6,446.6z"/>
		<path class="st39" d="M601,434.9l-0.5,12.4c0,0-1.4,1.6-6.9,1.7c-3.6,0-7.1-0.6-10.6-1.5l-1.1-16.7"/>
		<rect x="616.1" y="458.6" class="st38" width="32.5" height="1.5"/>
		<path class="st35" d="M643.9,446.6l2.8,0.7c0,0,1.1,3.7,1.5,6.2c0.3,1.7,0.4,3.4,0.3,5.1H616c0,0,0.8-2.8,8.6-7.4
			c1.8-1,3.3-2.3,4.6-3.8L643.9,446.6z"/>
		<path class="st39" d="M645.6,434.4l1.1,12.9c0,0-1.4,1.6-6.9,1.7c-3.6,0-7.1-0.5-10.6-1.5l-2.5-16.7"/>
		<path class="st40" d="M640.4,306.5c0,0,5.1,10.6,1,30.8c2.1,45.1,7.5,105.8,7.5,105.8l-31-0.1c0,0-6.3-65.2-10.1-97.7
			c-4.2-36.2-6.8-80.5-6.8-80.5"/>
		<path class="st41" d="M622.9,442.9c0,0-6.3-65.2-10.1-97.7"/>
		<path class="st40" d="M581.3,308.5c0,0-3.3,47.6-3.3,70.4s-1.5,64.1-1.5,64.1h31.3l11.7-107.9c9.5-11.4,8.8-36.2,6.5-45.9l-31-8.5
			L581.3,308.5z"/>
		<path class="st41" d="M613.1,394.4l6.4-59.3c4.9-5.6,7.7-12.7,8-20.2"/>
		<line class="st41" x1="587.8" y1="303.8" x2="580.4" y2="443"/>
		<line class="st41" x1="608.3" y1="316.3" x2="623.6" y2="316.6"/>
		<line class="st41" x1="634.4" y1="315.8" x2="640.2" y2="315.7"/>
		<path class="st7" d="M554.9,236.1c-4.3-4.8-15.6-23.1-16.9-22.8s2.2,5.9,1.1,6s-7-8.3-8.2-7.7c-1.6,0.9,4.9,9.1,4.9,9.1
			s-2.5-3.5-3.7-2.3c-0.8,0.8-0.4,2.5,1.4,5.4c-1.2-1.5-2.3-1.7-3.2-0.9s0,2.4,1,4c-0.8-1-2-1.6-2.4-0.5c-0.4,1.4,3,8.8,11.2,20.8"
			/>
		<path class="st42" d="M616.3,216.9c0,0,17.9,0.8,23.3,21.2c2.4,9.2,4,72.3,4,72.3L578,310c0,0,0.9-57.1,2.3-69.4
			c2.7-22.6,20.5-24,20.5-24s0.8,2,7.8,2S616.3,216.9,616.3,216.9z"/>
		<path class="st42" d="M616.3,216.9c21.3,0,34.4,29.2,34.4,29.2l-13.4,6.7"/>
		<path class="st7" d="M588.2,258.4c0,0-11.4,16.4-20.5,17.2c-12.3,1.2-34.3-39.9-34.3-39.9l13.8-9.4l19,23.8l6.5-9.7"/>
		<path class="st42" d="M600.8,216.6c-18.3,1-31.7,28.3-31.7,28.3l21.5,15.4l12.2-15.9"/>
		<line class="st43" x1="589.8" y1="259.8" x2="600.2" y2="246.3"/>
		<path class="st43" d="M641.4,250.8c-0.8-5.4-2.2-10.8-4.1-15.9"/>
		<path class="st7" d="M599.9,198c0,0-3,1.4-2.8,2c0.3,0.6,0.6,1.3,1,1.9"/>
		<line class="st41" x1="576.5" y1="436.2" x2="608.3" y2="436.2"/>
		<line class="st41" x1="617.2" y1="436.5" x2="648.2" y2="436.5"/>
	</g>
</g>
</svg>
